<svg width="128" height="84" viewBox="0 0 128 84" fill="none" xmlns="http://www.w3.org/2000/svg">
<path d="M63.6841 52.6793C66.3088 52.6793 68.4366 50.5986 68.4366 48.0319C68.4366 45.4653 66.3088 43.3846 63.6841 43.3846C61.0594 43.3846 58.9316 45.4653 58.9316 48.0319C58.9316 50.5986 61.0594 52.6793 63.6841 52.6793Z" fill="white"/>
<path d="M28.6698 28.4385L48.3289 43.6941C51.5645 46.2049 56.3161 45.7322 58.9418 42.6382C61.5676 39.5442 61.0732 35.0005 57.8376 32.4897L38.1785 17.2341C34.9429 14.7232 30.1914 15.196 27.5656 18.29C24.9398 21.384 25.4342 25.9276 28.6698 28.4385Z" fill="white"/>
<path d="M43.129 16.3253L84.1879 48.1873C87.3849 50.6682 92.0798 50.2011 94.6742 47.144L94.7876 47.0103C97.3821 43.9532 96.8936 39.4638 93.6966 36.9829L52.6376 5.12086C49.4407 2.63997 44.7458 3.10707 42.1514 6.16416L42.0379 6.29786C39.4435 9.35495 39.932 13.8444 43.129 16.3253Z" fill="white"/>
<path d="M12.0312 60.91V70.2752C12.0312 71.8312 11.543 73.0617 10.5664 73.9666C9.59635 74.8716 8.26823 75.324 6.58203 75.324C4.92188 75.324 3.60352 74.8846 2.62695 74.0057C1.65039 73.1268 1.15234 71.9191 1.13281 70.3826V60.91H4.0625V70.2947C4.0625 71.2257 4.28385 71.9061 4.72656 72.3358C5.17578 72.7589 5.79427 72.9705 6.58203 72.9705C8.22917 72.9705 9.06576 72.1046 9.0918 70.3729V60.91H12.0312ZM16.8457 64.5623L16.9336 65.783C17.6888 64.839 18.7012 64.367 19.9707 64.367C21.0905 64.367 21.9238 64.6958 22.4707 65.3533C23.0176 66.0109 23.2975 66.994 23.3105 68.3026V75.1287H20.4883V68.3709C20.4883 67.772 20.3581 67.339 20.0977 67.0721C19.8372 66.7986 19.4043 66.6619 18.7988 66.6619C18.0046 66.6619 17.4089 67.0005 17.0117 67.6776V75.1287H14.1895V64.5623H16.8457ZM28.4375 75.1287H25.6055V60.1287H28.4375V75.1287ZM33.75 75.1287H30.918V64.5623H33.75V75.1287ZM30.752 61.8279C30.752 61.4048 30.8919 61.0565 31.1719 60.783C31.4583 60.5096 31.8457 60.3729 32.334 60.3729C32.8158 60.3729 33.1999 60.5096 33.4863 60.783C33.7728 61.0565 33.916 61.4048 33.916 61.8279C33.916 62.2576 33.7695 62.6092 33.4766 62.8826C33.1901 63.1561 32.8092 63.2928 32.334 63.2928C31.8587 63.2928 31.4746 63.1561 31.1816 62.8826C30.8952 62.6092 30.752 62.2576 30.752 61.8279ZM38.7305 64.5623L38.8184 65.744C39.5671 64.826 40.5794 64.367 41.8555 64.367C43.2161 64.367 44.1504 64.9041 44.6582 65.9783C45.4004 64.9041 46.4583 64.367 47.832 64.367C48.9779 64.367 49.8307 64.7023 50.3906 65.3729C50.9505 66.0369 51.2305 67.0395 51.2305 68.3807V75.1287H48.3984V68.3904C48.3984 67.7915 48.2812 67.3553 48.0469 67.0818C47.8125 66.8019 47.3991 66.6619 46.8066 66.6619C45.9603 66.6619 45.3743 67.0656 45.0488 67.8729L45.0586 75.1287H42.2363V68.4002C42.2363 67.7882 42.1159 67.3455 41.875 67.0721C41.6341 66.7986 41.224 66.6619 40.6445 66.6619C39.8438 66.6619 39.2643 66.994 38.9062 67.658V75.1287H36.084V64.5623H38.7305ZM56.3867 75.1287H53.5547V64.5623H56.3867V75.1287ZM53.3887 61.8279C53.3887 61.4048 53.5286 61.0565 53.8086 60.783C54.0951 60.5096 54.4824 60.3729 54.9707 60.3729C55.4525 60.3729 55.8366 60.5096 56.123 60.783C56.4095 61.0565 56.5527 61.4048 56.5527 61.8279C56.5527 62.2576 56.4062 62.6092 56.1133 62.8826C55.8268 63.1561 55.446 63.2928 54.9707 63.2928C54.4954 63.2928 54.1113 63.1561 53.8184 62.8826C53.5319 62.6092 53.3887 62.2576 53.3887 61.8279ZM62.0996 61.9647V64.5623H63.9062V66.6326H62.0996V71.9061C62.0996 72.2967 62.1745 72.5766 62.3242 72.7459C62.474 72.9152 62.7604 72.9998 63.1836 72.9998C63.4961 72.9998 63.7728 72.977 64.0137 72.9315V75.0701C63.4603 75.2394 62.8906 75.324 62.3047 75.324C60.3255 75.324 59.3164 74.3247 59.2773 72.326V66.6326H57.7344V64.5623H59.2773V61.9647H62.0996ZM70.3418 75.324C68.7923 75.324 67.5293 74.8488 66.5527 73.8983C65.5827 72.9477 65.0977 71.6815 65.0977 70.0994V69.826C65.0977 68.7648 65.3027 67.8175 65.7129 66.9842C66.123 66.1443 66.7025 65.4998 67.4512 65.0506C68.2064 64.5949 69.0658 64.367 70.0293 64.367C71.4746 64.367 72.6107 64.8227 73.4375 65.7342C74.2708 66.6457 74.6875 67.938 74.6875 69.6111V70.7635H67.959C68.0501 71.4536 68.3236 72.007 68.7793 72.4236C69.2415 72.8403 69.8242 73.0486 70.5273 73.0486C71.6146 73.0486 72.4642 72.6548 73.0762 71.867L74.4629 73.4197C74.0397 74.0187 73.4668 74.4874 72.7441 74.826C72.0215 75.158 71.2207 75.324 70.3418 75.324ZM70.0195 66.6522C69.4596 66.6522 69.0039 66.841 68.6523 67.2186C68.3073 67.5962 68.0859 68.1365 67.9883 68.8397H71.9141V68.6151C71.901 67.9901 71.7318 67.5083 71.4062 67.1697C71.0807 66.8247 70.6185 66.6522 70.0195 66.6522ZM75.8594 69.7674C75.8594 68.1203 76.2272 66.8084 76.9629 65.8318C77.7051 64.8553 78.7174 64.367 80 64.367C81.0286 64.367 81.8783 64.7511 82.5488 65.5193V60.1287H85.3809V75.1287H82.832L82.6953 74.0057C81.9922 74.8846 81.0872 75.324 79.9805 75.324C78.737 75.324 77.7376 74.8358 76.9824 73.8592C76.2337 72.8761 75.8594 71.5122 75.8594 69.7674ZM78.6816 69.9725C78.6816 70.9621 78.8542 71.7205 79.1992 72.2479C79.5443 72.7752 80.0456 73.0389 80.7031 73.0389C81.5755 73.0389 82.1908 72.671 82.5488 71.9354V67.7654C82.1973 67.0298 81.5885 66.6619 80.7227 66.6619C79.362 66.6619 78.6816 67.7654 78.6816 69.9725ZM87.7148 73.742C87.7148 73.2928 87.8646 72.9282 88.1641 72.6483C88.4701 72.3683 88.8509 72.2283 89.3066 72.2283C89.7689 72.2283 90.1497 72.3683 90.4492 72.6483C90.7552 72.9282 90.9082 73.2928 90.9082 73.742C90.9082 74.1847 90.7585 74.546 90.459 74.826C90.1595 75.0994 89.7754 75.2361 89.3066 75.2361C88.8444 75.2361 88.4635 75.0994 88.1641 74.826C87.8646 74.546 87.7148 74.1847 87.7148 73.742ZM95.9863 64.5623L96.0742 65.783C96.8294 64.839 97.8418 64.367 99.1113 64.367C100.231 64.367 101.064 64.6958 101.611 65.3533C102.158 66.0109 102.438 66.994 102.451 68.3026V75.1287H99.6289V68.3709C99.6289 67.772 99.4987 67.339 99.2383 67.0721C98.9779 66.7986 98.5449 66.6619 97.9395 66.6619C97.1452 66.6619 96.5495 67.0005 96.1523 67.6776V75.1287H93.3301V64.5623H95.9863ZM104.189 69.7674C104.189 68.1463 104.574 66.841 105.342 65.8514C106.117 64.8618 107.158 64.367 108.467 64.367C109.626 64.367 110.527 64.7641 111.172 65.5584L111.289 64.5623H113.848V74.7772C113.848 75.7016 113.636 76.5057 113.213 77.1893C112.796 77.8729 112.207 78.3937 111.445 78.7518C110.684 79.1098 109.792 79.2889 108.77 79.2889C107.995 79.2889 107.24 79.1326 106.504 78.8201C105.768 78.5141 105.212 78.117 104.834 77.6287L106.084 75.91C106.787 76.6977 107.64 77.0916 108.643 77.0916C109.391 77.0916 109.974 76.8898 110.391 76.4861C110.807 76.089 111.016 75.5226 111.016 74.7869V74.2205C110.365 74.9562 109.508 75.324 108.447 75.324C107.178 75.324 106.149 74.8292 105.361 73.8397C104.58 72.8436 104.189 71.5252 104.189 69.8846V69.7674ZM107.012 69.9725C107.012 70.9295 107.204 71.6815 107.588 72.2283C107.972 72.7687 108.499 73.0389 109.17 73.0389C110.029 73.0389 110.645 72.7166 111.016 72.0721V67.6287C110.638 66.9842 110.029 66.6619 109.189 66.6619C108.512 66.6619 107.979 66.9386 107.588 67.492C107.204 68.0454 107.012 68.8722 107.012 69.9725Z" fill="white"/>
</svg>
