<svg width="136" height="136" viewBox="0 0 136 136" fill="none" xmlns="http://www.w3.org/2000/svg">
<path d="M113.332 50.0556C107.436 50.0551 101.689 48.2053 96.8991 44.7667C96.6312 45.4838 96.1518 46.1025 95.5244 46.541C94.897 46.9795 94.1512 47.2171 93.3858 47.2223H42.6125C41.6105 47.2223 40.6496 46.8242 39.9412 46.1158C39.2327 45.4073 38.8347 44.4464 38.8347 43.4445C38.8347 42.4426 39.2327 41.4817 39.9412 40.7732C40.6496 40.0647 41.6105 39.6667 42.6125 39.6667H91.4214C88.3329 35.861 86.2904 31.3156 85.4954 26.4794C84.7004 21.6431 85.1804 16.683 86.888 12.0889C80.7472 10.3244 74.3884 9.43419 67.9991 9.44449C34.6791 9.44449 7.55469 33.1689 7.55469 62.3334C7.55469 91.4978 34.6791 115.222 67.9991 115.222C74.233 115.215 80.4363 114.351 86.4347 112.653L107.326 125.951C107.896 126.317 108.554 126.523 109.232 126.547C109.909 126.571 110.58 126.412 111.175 126.088C111.77 125.764 112.266 125.285 112.613 124.703C112.959 124.12 113.142 123.455 113.144 122.778V97.3534C117.87 92.8188 121.643 87.3845 124.238 81.3702C126.833 75.356 128.199 68.8834 128.255 62.3334C128.238 57.1891 127.37 52.0831 125.686 47.2223C121.837 49.0924 117.612 50.0613 113.332 50.0556ZM82.1658 85H53.8325C52.8305 85 51.8696 84.602 51.1612 83.8936C50.4527 83.1851 50.0547 82.2242 50.0547 81.2223C50.0547 80.2203 50.4527 79.2594 51.1612 78.551C51.8696 77.8425 52.8305 77.4445 53.8325 77.4445H82.1658C83.1677 77.4445 84.1286 77.8425 84.8371 78.551C85.5456 79.2594 85.9436 80.2203 85.9436 81.2223C85.9436 82.2242 85.5456 83.1851 84.8371 83.8936C84.1286 84.602 83.1677 85 82.1658 85ZM94.4436 66.1112H41.5547C40.5528 66.1112 39.5919 65.7131 38.8834 65.0047C38.1749 64.2962 37.7769 63.3353 37.7769 62.3334C37.7769 61.3314 38.1749 60.3706 38.8834 59.6621C39.5919 58.9536 40.5528 58.5556 41.5547 58.5556H94.4436C95.4455 58.5556 96.4064 58.9536 97.1149 59.6621C97.8233 60.3706 98.2214 61.3314 98.2214 62.3334C98.2214 63.3353 97.8233 64.2962 97.1149 65.0047C96.4064 65.7131 95.4455 66.1112 94.4436 66.1112Z" fill="white"/>
<path d="M113.334 40.6111C123.766 40.6111 132.223 32.1542 132.223 21.7222C132.223 11.2902 123.766 2.83331 113.334 2.83331C102.902 2.83331 94.4453 11.2902 94.4453 21.7222C94.4453 32.1542 102.902 40.6111 113.334 40.6111Z" fill="#26E144"/>
</svg>
